<?xml version="1.0" standalone="no"?>
<!DOCTYPE svg PUBLIC "-//W3C//DTD SVG 20010904//EN"
 "http://www.w3.org/TR/2001/REC-SVG-20010904/DTD/svg10.dtd">
<svg version="1.0" xmlns="http://www.w3.org/2000/svg"
 width="144.000000pt" height="144.000000pt" viewBox="0 0 144.000000 144.000000"
 preserveAspectRatio="xMidYMid meet">
<metadata>
Created by potrace 1.11, written by Peter Selinger 2001-2013
</metadata>
<g transform="translate(0.000000,144.000000) scale(0.100000,-0.100000)"
fill="#000000" stroke="none">
<path d="M628 1330 c-237 -43 -422 -201 -495 -424 -37 -116 -37 -266 0 -382
63 -191 210 -338 401 -401 116 -37 266 -37 382 0 191 63 338 210 401 401 37
116 37 266 0 382 -63 191 -212 340 -399 399 -88 28 -216 39 -290 25z m397
-342 c35 -18 65 -51 65 -71 0 -43 -58 -75 -77 -43 -26 44 -103 48 -143 7 -37
-36 -46 -72 -31 -122 24 -78 118 -102 169 -43 20 23 28 26 50 18 30 -11 41
-49 22 -83 -18 -35 -83 -61 -148 -61 -122 0 -205 82 -205 203 0 138 98 226
233 210 25 -3 54 -10 65 -15z m-316 -2 c7 -8 11 -27 9 -43 -3 -27 -5 -28 -65
-31 l-62 -3 -3 -151 c-3 -168 -9 -182 -65 -162 l-28 9 -3 153 -3 152 -52 0
c-29 0 -58 5 -65 12 -18 18 -15 55 6 67 9 6 84 11 168 11 120 0 154 -3 163
-14z m-160 -507 c1 -62 -1 -70 -16 -67 -22 4 -31 72 -12 94 8 10 8 14 0 14 -6
0 -11 7 -11 15 0 8 8 15 19 15 16 0 19 -9 20 -71z m151 34 c0 -34 1 -35 18
-20 18 17 42 23 42 11 0 -3 -5 -15 -11 -26 -9 -16 -7 -24 5 -36 15 -15 16 -11
16 46 0 50 3 62 16 62 9 0 18 -9 21 -20 3 -13 14 -20 28 -20 14 0 33 -12 45
-27 15 -19 20 -22 15 -9 -7 23 10 36 45 36 36 0 50 -18 50 -62 l0 -38 -45 0
c-32 0 -47 5 -52 15 -5 14 -7 14 -23 0 -23 -21 -128 -19 -152 3 -16 14 -18 13
-18 -1 0 -10 -7 -17 -15 -17 -8 0 -15 5 -15 12 0 9 -3 9 -12 0 -16 -16 -70
-16 -86 0 -7 7 -12 25 -12 40 0 38 38 57 81 41 28 -11 29 -10 29 18 0 19 5 29
15 29 11 0 15 -11 15 -37z m338 -37 c3 -58 1 -67 -13 -64 -12 2 -17 18 -20 63
-4 63 0 78 18 72 7 -2 13 -31 15 -71z m50 1 c2 -55 0 -67 -13 -67 -12 0 -15
14 -15 71 0 52 3 70 13 67 7 -3 13 -29 15 -71z m-660 42 l8 -20 18 20 c21 23
46 28 46 9 0 -6 -9 -21 -20 -33 l-20 -22 20 -18 c22 -20 27 -45 8 -45 -6 0
-22 10 -35 22 l-23 21 0 -21 c0 -15 -6 -22 -20 -22 -18 0 -20 7 -20 65 0 52 3
65 15 65 9 0 19 -9 23 -21z"/>
<path d="M595 470 c-10 -17 3 -25 41 -25 20 0 34 5 34 13 0 6 -6 12 -12 12 -7
0 -23 3 -34 6 -12 3 -25 1 -29 -6z"/>
<path d="M810 460 c0 -15 5 -20 18 -18 9 2 17 10 17 18 0 8 -8 16 -17 18 -13
2 -18 -3 -18 -18z"/>
<path d="M928 473 c7 -3 16 -2 19 1 4 3 -2 6 -13 5 -11 0 -14 -3 -6 -6z"/>
<path d="M930 440 c0 -5 5 -10 10 -10 6 0 10 5 10 10 0 6 -4 10 -10 10 -5 0
-10 -4 -10 -10z"/>
</g>
</svg>
